<mxfile host="app.diagrams.net" modified="2021-09-08T13:31:46.087Z" agent="5.0 (Macintosh; Intel Mac OS X 10_15_7) AppleWebKit/537.36 (KHTML, like Gecko) Chrome/92.0.4515.159 Safari/537.36 OPR/78.0.4093.184" etag="M3I1n6oUOvILSY-4gRTj" version="15.1.1" type="github">
  <diagram id="C5RBs43oDa-KdzZeNtuy" name="Page-1">
    <mxGraphModel dx="906" dy="1717" grid="1" gridSize="10" guides="1" tooltips="1" connect="1" arrows="1" fold="1" page="1" pageScale="1" pageWidth="827" pageHeight="1169" math="0" shadow="0">
      <root>
        <mxCell id="WIyWlLk6GJQsqaUBKTNV-0" />
        <mxCell id="WIyWlLk6GJQsqaUBKTNV-1" parent="WIyWlLk6GJQsqaUBKTNV-0" />
        <mxCell id="4ooUrbchnGJpolXsYl_T-0" value="" style="aspect=fixed;html=1;points=[];align=center;image;fontSize=12;image=img/lib/azure2/compute/Function_Apps.svg;" parent="WIyWlLk6GJQsqaUBKTNV-1" vertex="1">
          <mxGeometry x="277.33" y="130" width="56.67" height="50" as="geometry" />
        </mxCell>
        <mxCell id="4ooUrbchnGJpolXsYl_T-1" value="signup/singin&lt;br&gt;&amp;nbsp;API&amp;nbsp;" style="text;whiteSpace=wrap;html=1;" parent="WIyWlLk6GJQsqaUBKTNV-1" vertex="1">
          <mxGeometry x="334" y="130" width="80" height="30" as="geometry" />
        </mxCell>
        <mxCell id="4ooUrbchnGJpolXsYl_T-2" value="&lt;font&gt;&lt;span style=&quot;font-size: 22px&quot;&gt;Payment system V2&lt;/span&gt;&lt;br&gt;&lt;font style=&quot;font-size: 18px&quot;&gt;first time sing-up and subscribe to free-trial plan&lt;/font&gt;&lt;br&gt;&lt;/font&gt;" style="text;html=1;align=center;verticalAlign=middle;resizable=0;points=[];autosize=1;" parent="WIyWlLk6GJQsqaUBKTNV-1" vertex="1">
          <mxGeometry x="200" y="-80" width="390" height="40" as="geometry" />
        </mxCell>
        <mxCell id="4ooUrbchnGJpolXsYl_T-3" value="" style="aspect=fixed;html=1;points=[];align=center;image;fontSize=12;image=img/lib/azure2/databases/Azure_Cosmos_DB.svg;" parent="WIyWlLk6GJQsqaUBKTNV-1" vertex="1">
          <mxGeometry x="270" y="280" width="64" height="64" as="geometry" />
        </mxCell>
        <mxCell id="4ooUrbchnGJpolXsYl_T-4" value="" style="endArrow=classic;html=1;exitX=0.406;exitY=0.98;exitDx=0;exitDy=0;exitPerimeter=0;" parent="WIyWlLk6GJQsqaUBKTNV-1" source="4ooUrbchnGJpolXsYl_T-0" edge="1">
          <mxGeometry width="50" height="50" relative="1" as="geometry">
            <mxPoint x="590" y="240" as="sourcePoint" />
            <mxPoint x="302" y="281" as="targetPoint" />
            <Array as="points">
              <mxPoint x="302" y="230" />
            </Array>
          </mxGeometry>
        </mxCell>
        <mxCell id="4ooUrbchnGJpolXsYl_T-5" value="New customer&amp;nbsp;" style="text;html=1;strokeColor=none;fillColor=none;align=center;verticalAlign=middle;whiteSpace=wrap;rounded=0;" parent="WIyWlLk6GJQsqaUBKTNV-1" vertex="1">
          <mxGeometry x="230" y="110" width="40" height="20" as="geometry" />
        </mxCell>
        <mxCell id="4ooUrbchnGJpolXsYl_T-7" value="Update customer information in customer cosmosDB container with&amp;nbsp;&lt;span style=&quot;background-color: rgb(255 , 255 , 254) ; font-family: &amp;#34;consolas&amp;#34; , &amp;#34;courier new&amp;#34; , monospace&quot;&gt;&lt;font color=&quot;#a31515&quot;&gt;newUser=true&lt;/font&gt;&lt;br&gt;&lt;font color=&quot;#000033&quot;&gt;and &lt;/font&gt;&lt;font color=&quot;#ff331c&quot;&gt;status = active&lt;br&gt;&lt;/font&gt;&lt;br&gt;&lt;/span&gt;" style="text;html=1;strokeColor=none;fillColor=none;align=center;verticalAlign=middle;whiteSpace=wrap;rounded=0;" parent="WIyWlLk6GJQsqaUBKTNV-1" vertex="1">
          <mxGeometry x="334" y="260" width="190" height="120" as="geometry" />
        </mxCell>
        <mxCell id="4ooUrbchnGJpolXsYl_T-9" value="" style="endArrow=classic;html=1;strokeColor=#0000FF;jumpSize=20;" parent="WIyWlLk6GJQsqaUBKTNV-1" edge="1">
          <mxGeometry width="50" height="50" relative="1" as="geometry">
            <mxPoint x="302" y="349" as="sourcePoint" />
            <mxPoint x="302" y="440" as="targetPoint" />
          </mxGeometry>
        </mxCell>
        <mxCell id="4ooUrbchnGJpolXsYl_T-10" value="Cosmos DB change feed trigger" style="text;html=1;align=center;verticalAlign=middle;resizable=0;points=[];autosize=1;" parent="WIyWlLk6GJQsqaUBKTNV-1" vertex="1">
          <mxGeometry x="310" y="410" width="190" height="20" as="geometry" />
        </mxCell>
        <mxCell id="4ooUrbchnGJpolXsYl_T-11" value="" style="shape=image;verticalLabelPosition=bottom;labelBackgroundColor=#ffffff;verticalAlign=top;aspect=fixed;imageAspect=0;image=data:image/png,iVBORw0KGgoAAAANSUhEUgAAANcAAADqCAMAAAAGRyD0AAAAsVBMVEX7ajP////+/v7t7e3s7Oz29vb7+/vz8/P09PTw8PD8aC/8aTL8Zy37ZSnt8PHt8fL5YSL0Yyf3YSPycD7zaDH///v4Xx3yflP0ek3zbDf76eHz7+z2kGvzlXPyhl/xgVj0wa/51sb139b+9/Hzq5P12Mzye0/05uH0zb/3pYjukGvzuKLzr5j849f15N32lXTznn/yvaj1yrfyoYHxtJrydEX98en40sDuiGH02ND97N4IaYrtAAAZYklEQVR4nO1daZuiPLM20IBsYXEXt1ZptV1Gndbufv7/DzsJm4CAFcCZnvc69SnXTEmnIKncqdypanBEkMzz/IuISEsiLV6gLeGFtCTS4kTa4mkL8Z4il1TkA0WUVrw9+6bYjBRlT/ElqShGikJSkfMUUVKxmafIN7hUd1+CXnAAu17yX0CquwIXKL40I8Vsu/IUuSzFZtTbh3bx/2/Xj7YLUeFfiIi0JdGWQFsCbcm0xdHWS7GiRFsibfGeovcTjrbk6Cdsis1IUb4poqRiM+rETdHvbUPmZZmnxnMSbdEXywm01aQtkbZk2uJ42vRat58I0U9uiiJR5NOKzeSzpegnaUUpT1EuVkz3thFzXC+RP4KMAxQfB0WOi4u7I//ZacUMv+UrFsyDQsWEXTWO77RdN0UhSxE8bdOKXI7iX7QLPdeuJ83bXC8jGkS8FqItA+qOXrK8TL7faohUJJmI1xJoS4haTe8f5ei/b61mnqJ0rygZ5BV3FsP5erZdHn+NJiNPfh03H6eZOx86Hc+3JJ94a6WfmNvbmGLD/7yRywDN2xxFdLd+ed9Udubr02bUb1tm1zR1XYtE103T7NrWoDfenfcrxzBw0m95T7zzMjcHl/RbL39oXaYj4vq6nLQsYo6mqI0cUVVF081uuz/+cBf+yPqxeIPHhjM/H/sWsSjXoJR5imaagwmxTTTwT8UbzuumR2xSYCbFjKO2jbZzB6fcESveaEpEBE/yWk0xbHn/KOb+pOn9tyAs1ptWCZsi23Rb7+3mgtBspjqR/6fTig3e95zedPRegzeyPD/vTUfvNZBW6GITisH78udt8L466+PA1IFjL1cU3Samyc3YMPAdXKITQtRbKeqtr1jzuoyuH/3qRkWmTWYdMrD+Nt7ATXdsm6WHX0roy9HM9nLoAxNmu5jwBpc7b3nD2fa7Wk1G3azTzXdXJu4xc1dTgDeEekR0doPaPlVStG7vLIqM/anFz/PGatc265lVWaKYvU9EvxnYz9eyLhvkW9XkK/KEfLO1hP8s3hBPLfu5VnmW2RPXwAx4I1oWAjibWBaCjVJy/YgrIuT2njgCE5ZZxwPKXz+TvW0kl3HRX7zFeCuAGtmK16NZuw/MFb198nY+j3vbrLavFLbtJ0+spKhm7xXD/HyFdRn9N/lDQ/AmmrVxuKfiDYROlv6HrWrQT3bZk1nGYtd9nC22DY0HZuk/ctevP/6xfFHMXQfl7tdD3JsKG6TiC5kRC6IoCef2X/hYVFTyyabDdDQkHV8piTc6v7t/52P5olkz9GBfWWZdRsM38y9a1aBjcdlBdeMN9Nr+c2tWnphfC8Ri1+M4m7y1nwPc2URv7R/F2TjqucODDyLBMQX9XrQl0lZ48IGd41/yg2nRrE+RHt1k9VZmxhuL0V+eWjdR7G1deANde3/JvWeJ2l1Su/jKeMO4Xn6QWUTM36gGHGW4g7/vCJNijnPO9RjmF3bbP8ERJsUcCXzW/ILiDaK+t36eWY2GPepA8MZL7rr8M82ihhFjhLJ4Aw9/4CD0hcyxxzyiHLvwvPXTXEYgBCSYu3u7YPMLHy4/1CwqavfznpciQ5genenPWrdSorSHKOitzMJLQeMfbRYBwcdS6/Lyx2DCHFHtPWK2yzh3a++HWvOeQB8jVryBXaumTvjn/l3TtjyhTVNTajFRta6svJRrq4aFS9XMrjXo/VqePvfD4XC1Wh3mw/nr7GPcG1jEusq2mSeDiZeC0Kiyz1B0s/318bp35IBC5O39sPdiDdmZn3eTtlnx9EwbYTgvhdr1UXFyKab1tvT4JhFvOcUXxcTChbvrWVVMU1oOE95wK+36Fd1+2307OJfWGIZbadBs/tGzyof7rTmG4w1pUWVyKeZgs29iDCDMEsNkjOXvZYvOtTLGdb/5BC+FSMDquLWksCUey08uze5vnfC8V4o/u3lrNcO/7P+3KDqzqV0KsnXnYuyJhbwUhD5LTy7NnL46mH90XPiSPi7ksbz+KmNZdwjmpaDFoOQoVIhVqCwPFov7SZf5D3t2wfAGKjkKVbu1pmc55fm96PPC6q/SdhXgjddyo1C3dk6544yYYmdrsQ1GAjiAvJRFv8wEVrvvQ1YWSZaIwxHLmY3SWsR/XeDnjVIoXmufY+4bPTwILsKnM4ZPpo0MEC8FifMyAQ17Ok+fbvLxA1OW+ykIXSfgV2tuDRDeQFyJvaRqbxxcm12k1dkA3YdqHXAWL+Ue9+5tZrMUayaFvGXKswyWxZyDYDlLMQRcIa8Tz2DRPe1djq4bkF/z/j7FZ3p4u5OA3yFy7DBeb7kC5aF6O5/0E+9bacW7TngtwQUFwmz6p28/lvL2lXjN/Ln0t8Nj912CDn19e/yGyXYZgc6JnCmrj9enKyO13NZz7wYtHgbD1CAe9RBvGMyfS/9ycLq7Nd0n4laTB4aZW6HArti8lVg/lz5ycMGFC9D9r8z9OnUeZPQUGmYeZRgvxVgzLsn6hHytUhdkQNd5cOExqTkWoLyUEdvn0nrXYhhRDm/Ejn8WX3lvWu0eEZSXMmT7XNrl0EyO79rvw6LOOHuF1uwPhIC8FPE309qltL/x0+/5IjmL66iY/Vcx4yA8k5fCX5kCoap9Nu4ILLHu5jFdCu7RRzgq3l18+N1ORqw0s7WlF3S4nHv0KV6K8cHk5M2dlKCEeE/koyf6iQRoy4+zZSmmOiFEP0koYuOwfbNsXVOIaLrdHs0cA2ezaDLxRp8FyMeWetD9Sma8Efcy2JnPNu+9fn86Xp4Pcv5174x1Gbks22RlcM0Y38+754uxHycWMGbkwbJFNcz1P3J/GS3aDF5DPxr+jPm7dkF4KWeGxUsZOOlpg2qfX9xt2oCX+3u8IbNgDfP1afkcKt2vzFiXDwyLl/6Ofmr+jbRdxgw+DFVr+M/YJf+CD0N9mTvB/7pd6fm1gntDtX1lnzZ/LF/KjZfitV7hw9DeiYl8KbIctQJkJGfnS5GlXEUpT1FOK8rZLJocXgq3AS/KanshRJg2O0HBbXhD9ssZinXlS+FFODY0l/9OvhQ8BEN5yphgsiuRRoxOBP6ZdiXnLT6BpxfF8eXypTjO8EpksZIMDMbz1fKlcHDMa79K0HwpUSRGMhbu9ld/4PNt2tOl2xGkovtM+flSihWlZHwedcDTS+k7RfevMvfL8vfmEjCHVEqRUnSztZlLGHL/rFK+FHQFfy59h1nymNFDeHdk3yWvUHTrlyunZmPteAPBVy9rzmYXWvy2s1+abv1eoCfjjQ/o91KmcuG8vYMRn4PcR6vmxa0dbzQjKofQbIpgcGhuxZBQEv443momW6K4KyQuaPZWyHxO7hMfKSZ4KbwDdhv20J+3L9n3vV+8i+Eh3QSh8YOQidr97WQRWNJpUMrlS8EHKOhVLh1UNL4T6zKN1T58oukxdJ+DN7ALdRv6kQPbhdAR8ljzA9VqV2yCGzMoijJnDPnZgAzG7msR3qiSL0XcQd2hNYTzS16BL4ts58APfShJPw9FUUoL/mIdMINRH8n5fj42DJjjNmgCdPPaCJ43lYG1Y57xM/AGQn2gOyRzHGgXulpgsxram1Mf3ojh3s4AaFf381HegRdv802GBRPJyjzn4V4vidQLAPf6ikleCvjcy5zn002kBN2EKSje0CZiMYElm0WTULznpfBzqOeyDsA8nJghGknFmvM1+fnYuoyhB0TqwAHmTTUYD+DNnVE/3sBQdoPyJgPtWrWZzCID8Rl2QU9SyF9/sF8N7AK/qVDUwap8nC2e3zTOSwGH5rVfBiwQIX2wUk4tF1fMRyvf81KgdukbKJBjJnR7ILGOfWV8XQbbtUSwdRkMYCIxT6h+vAG2awe1642VIuztVv6qXffzNmUXGYedC+sNGnr0VOJ7FfJSWOxK002yeSmdVhm78ngp/B2BJT+7Sxxv4C3YbxgwvAGPl9zsgtyqYsMbBpNdkHUZ95j9xrYwLFlqXYbbdQTaxQqjvC1Y/XaB1+UR9Hstdca7d2Rdrp2XAsZRygTnz684L4UVzns4qn5eChTPK30o3mDZLVPRRtET6+OloD10n9LupNblPF4lYnQcFG7Ujzeu4H3lFRjfQFBXFIg1fIZd4E17dw+1C/qqfNGmXF12xedXBxrq8+I2sA37OxOZcfYUXooDhan60vCJuN4myEcv2XQTg4HnQvbhnaZcipciF/FS4NEIsoCB9st0gDLct8oO31XnpRjwOLYDi29QRgiY96ePHm5/SuEN3gAfw1pzqF0v3Ba6etDUIE/hpYABB9s5EXAkklFY4zlRgpcyhF7y1jepkE1+VtymtALlnjKXgixV46XEyDGJ+DxaQAP0Sr95jzfyeCmgXGHm7yb/EuVduIvPV+Sl9KD7QErfAPM38PxROki1u3kqLwUcF6PXoOG8FPzggrVifqCn8lJOUNijTdh4KZ1NQXJcvfWKnspLERh4RF5yg2JySPwfxXNetQTNPF4FIN2kHC/lhT+At7dkRxG9L+4BL8VDB9j5aN8nHFJ1c7JHOKb4Uj8vhecdsONQekX5qTP5ouLi9GbHU2Apum0d93QepJbbmvEGD0dSjYa9L8hPncODRWi/m7Rt2zaJ2NblOFvRGfEUuxIT3IBfutF/l+PBys7cPRN5na9kjPlcxRp5KUQYeMtVaCT+MfITJX3fYQGP0OpLXMOLTS8IeX6+Ci+FDlb4BFMHKzhfNG+5/VP3boQzPCBh78Sfa1cc91JNlns33pXRQl5KiFIL8qXwCcVCXgoE9wZV0BoJFgmdy+/wiJ+94x7xUh6xSMB0kwq8FH86MlyvVANSNoufr7VcNUMdH8RyiV77Jf0b927oS2M527HX+OfbFWyame75Xhy+IM4WTfAq+VIq81KCYMGCJZuDvhGqFRRmo5vkBjkKeSn+vGW5OUr2K3vxj+CNCryUYNiyJbeheVh/4rp8bxfvMLET9LH0L9hF/tVYMrGaaAgHni/lkV15ihV4KbTl5fdcMdVtVK218UfypdwrpngpcvST7HwpIluKQJpa5A/lS8n1MrA6Pi5boU2tv3j6umygdMAAyyvXHTLVu2FNY6ZPRPxcu5zTZuMmAjz4MLZMs9tzRbhdBsMuzBNz5OAn2mUcLqaud3/HFV2/wJ/WneEsu7JHLPhENvpiI4d/1vzi8MHPTNv9xFFvnfCQhm4q8nkpPjSMaIXok5UoY76jcF/pTXBvGPivi+fDnvJ8CCN4PoQRSUUxUhQiRSNMuOundPIU8a02A2Xlxp5YXIeOlVBCoP1XJ1awu8Z1Gc/DT6N9RcM7FuhULh0Y3vDsYjnHD95b74qfYFesOJe5vNl1202plojAdpWgHNO8qUbtdhnnKI2w1lplfS910MmwK3feuqXz3GYsoKXxfKz4Ik3bh0LF+Px6z8LzAdNDFDl/R0Nb3o6mTEp91d50fO4IDehwt2c3k8+WaCtgkRQpGrHii16tnpCXInJOlLy7uzYoLyX5xPw6PgJbtsBAzOl/Rsb6VS5fiuH2o3ertfcoCAhyXj1f1y8OqnaX8v3GujD/PPMlDO/vW1sZ17Muy7FU7VrrP+QrYvk6XJAJg78nNsEbg5kHdMF28U3UuZSpFqCak7nB12AXmULRgNH7h0BROk8t25q4AjHwe3Z2OwBeSnresvv64JMtq+fVR4J8W0LNycp3Gby86WoNlaCnHT1eLcDzUSw1DLBIETlEEkqWx1LNy1kIn9iMPzHWCoK3cvSnpdt/S5Sh0hkElYvU7qbjK0pcmN9c7a659BPD4I0X7/U/b05A7FChbsVaxvD4fNxvUe9u0PkdHFnpNFM/R9OU887vyD1qPYTAvJR0vRuWZG0p0ezJuhMVr4Cvywh1Psej5QE30anrfXs/Uz9HT95jtWlVe8hUpzixT3hhOA67t8zsnRcoTXQvtgtzi1nf1DV98E0m2aZrmmSuBunE8SqRTdp0C+16sE+oVMdHMwfLfdPAPAxvYMN53QwoF4I4hp53yr7dzrFfngcZKTKSf26ft/1pPGB6COx56OOi6Obbbk6m9UO6iSCI82XfjlIPm0P/H0P2i7hOFulWBw6cl5Kq40OnY7mqHEnT+ss1PfuP+3mOS5wYO6vzkWyJY2PDnMfLvvLOLsVDMjf+xSMYLyVjn+CwA/sM06zpZjb3CrliA2Ovuwhjw6Clv/azI003nOi3MgjKKiMP1K9GKWak3r9dnGXCG5FduLSzj4uq6bZt9cbL7Wztugeax2zork+74/vFts37tFLd2S0cwxnrVsp9BXs94o6C4m8PeClZcX9jzRZ1KzCO1g2046LrWZX1NLP/GfMyi7uK6nqvEzq4jvu6wvxDXkqWiIyXMaoJZYKtY6QV8fWOlKlPw5o94rndta3dPcUFVB9WBiXeqUXo0vCfiL36KcQniMZhfEeCo0G9YGCdqTdRu2dAntsE8PaHLe98/Yk6qrRs4vizEwWuyOxY7Nrpv6yaR1ovzevt2t8iapPsc4eHdYrx6u3J5XwVzTZb49mKQ+E9Xzp3zvdVwBT71OQDIPka1MJRLp1HvJSMjS39xvhQtfyyquu6omQ4CVXRiTNp/dq6DoG7NwaPgF579zxMrf0aBRpDsxra9DEvJacllKouFev95bw9TloWQXymHgnZ8FqD3nh3Hi7IAIn9wabgzHrm/avU34ZcyEtxQ7PU7umOwAKvR7+uVt5cGzdF1LkOX2fb5ea4IbKka9n3lVbspNzumN8S0eJ0ybCq0R0Tj+H3VnKi3bw5doDnRBnAmzPO1ZYxc+efrVGUYfhI1vCS5KfmN0G/brqQQ/BqrLOEI8Xv0EfTkjQl8EY0HSsa5pdIviscn4pvCNJ8RzYqWX+oOx3GX8A8sIuWpIHwUuJ2JQt1GecCDvxj0WgOvtw4mz8Oh9u8KrGatUWJ86/gQMWcLHgexEvJv0nTrDbHzA3K5qVwEpaM5tUl+5SsWdWgeHEy5KKf0E8jEXinK1r3vQPlpRQFjtaVvKK5NvhmaoLT6eYshp/Labt7B38DUfXBzOfYez9xl7tvTHq7H/cnp7t6BUV1fNLrcvR5Max6Wo4o/fV8uKBRD/peHdRZXIfr03LcGxDnn19aWrc3CxTyHAgKJmjZ3tLeBEU5mOIb2XbxeA6onpYrqmk3Bv3edEKl93YZWF2b1nkp8kea/bX34lHebER7DwWrXeqEUHRZC8RLKeST4dWoEghWVUXRPFEglc01e7puRt3FnY+gJK6+QRwrLyU7A0nouLADrb1YWVRi1dnBES/F+J6Gf1ob0f7ceClpAgscb9ycR/NUDXpArdKtr/Vt55EsGavT8AYLDzZ/Xb4pGu6lfL1uiEUNuhFrH1351gmM9m+3caIE9wXD3lbBGzFFvMqpMlaTkJ3Y9LQyYvDIOBxjmY31wV7gn2AXj6UTYxlhJqNau//i4RjecGL7S1XtjhaMefXhfE1u2KsUMc0WVTPtCyUMxacNck7xu34E/qLHPHMfb/g7UHTjpaDQz6OQ6ZFWJH6xElzMsEm32++nYYqXgp3ZW+wP+ceGfMiDjSmCeCmPed7kL66Zi3VnG0SLr5Hv9GvnOrc4QFD31pn141XcKfw1ok6UOE/JwRsJRbxYlqkc31B80TS6ZbZtqzU5bl+vjkwcRWJ+07jNJQ7vle5omF0Ovj67/Efup9nbikLpvVHpTUbjzW57dlcrf9om/Ba9tbjftMMRSMeFqueXg2c8JwIcBM8GrGuZ/h9yqAR4nrIH0n6Lx/h6ntiJJ+vWZpVSfJAvJdgEJbkjtBXsaLjUbsnfBAUsEuO6tNgs05c+9ImezcmJJ5I9SOdz3E5sxYijHAe8lMzeNpO9heyX79evSDEYB8NjTumGbFH6wv1+OYzzke3Yav17YCYfqNFbzggO0Muuy+H45gM/ux+zWGbPM+2iq+jC3X610/ENzZyupQy/VT/eSNpFo5HuLxs8Gs1t9vfqnMetxMVtKt45hGRUq+NT/n4INr6POSGXO/GzldET/qAYpX9YdW11tbuDMNM67mVcNl/KjZciJbgjMaZHSrGZVKQt7rq8pN92pqjt/WJxHV6HB/d8Wh7H24X3nF93Rwya2VoegtvOMQKLlMN0AfNS7sJXxYocQQcjyEdTrVZr0G7oflRb614WxCfQxEXxl0I+1ejsGHXkS2HEGxmAC8vz7Zv92DRVUWNRAFqMAyUSMim63TtdfVBf132iKnbRDSDaf/QtMiDhi5raXlDmeIgtNNPqL/chnK2nbiAz3siet+5u2rb1wkBT3C6L2GXMugqtMWW3JztXpmWVq+Q/BGQgSXM+IIpk/l7Xm37D1iHfTblQkol47jfavc35Kor3uVjA+VKEBC8F6Oc50PvigxcryYfz8n1g2UVRT2qWOcP+ExcOzV2RPwxSvc1ThPBSSo3vkAeLDcyhqzvbfLUsi6YTITsTLRJ6tEd5D4OZ/HDaVq5TXKtd4caWYFNn7n7SM73x6Otr9E5lND5udqezO0T4sTuqli+lnnF48zLx1Y4PgAnF4f78J5sBg80dwfEGgJfyL8qz/Dz4xWYNg+r3l5+wLv/Qe77/K3YVw1k5wpQQ3PvEfClg3MvIS7lLgwJRjDY01RTT+VJyO1GKl8I0b39evpT61+Wk4nPyijyO23iPpP+YikdlX+Tnef6WVyQPbwSBkFid4mxeCgq6yydpu+iR30oq+s/+P0yf5IVWSmEcAAAAAElFTkSuQmCC;" parent="WIyWlLk6GJQsqaUBKTNV-1" vertex="1">
          <mxGeometry x="260" y="600" width="74" height="80.54" as="geometry" />
        </mxCell>
        <mxCell id="4ooUrbchnGJpolXsYl_T-12" value="" style="aspect=fixed;html=1;points=[];align=center;image;fontSize=12;image=img/lib/azure2/compute/Function_Apps.svg;" parent="WIyWlLk6GJQsqaUBKTNV-1" vertex="1">
          <mxGeometry x="270" y="450" width="56.67" height="50" as="geometry" />
        </mxCell>
        <mxCell id="4ooUrbchnGJpolXsYl_T-13" value="" style="endArrow=classic;html=1;strokeColor=#0000FF;exitX=0.388;exitY=1.08;exitDx=0;exitDy=0;exitPerimeter=0;" parent="WIyWlLk6GJQsqaUBKTNV-1" source="4ooUrbchnGJpolXsYl_T-12" edge="1">
          <mxGeometry width="50" height="50" relative="1" as="geometry">
            <mxPoint x="300" y="510" as="sourcePoint" />
            <mxPoint x="292" y="600" as="targetPoint" />
          </mxGeometry>
        </mxCell>
        <mxCell id="4ooUrbchnGJpolXsYl_T-14" value="Create free trial subscription&amp;nbsp;&lt;br&gt;with&amp;nbsp;auto renewing off" style="text;html=1;align=center;verticalAlign=middle;resizable=0;points=[];autosize=1;" parent="WIyWlLk6GJQsqaUBKTNV-1" vertex="1">
          <mxGeometry x="300" y="530" width="170" height="30" as="geometry" />
        </mxCell>
        <mxCell id="4ooUrbchnGJpolXsYl_T-15" value="In chargebee create subscription event&amp;nbsp;occurs" style="text;html=1;align=center;verticalAlign=middle;resizable=0;points=[];autosize=1;" parent="WIyWlLk6GJQsqaUBKTNV-1" vertex="1">
          <mxGeometry x="300" y="710" width="260" height="20" as="geometry" />
        </mxCell>
        <mxCell id="4ooUrbchnGJpolXsYl_T-16" value="" style="aspect=fixed;html=1;points=[];align=center;image;fontSize=12;image=img/lib/azure2/databases/Azure_Cosmos_DB.svg;" parent="WIyWlLk6GJQsqaUBKTNV-1" vertex="1">
          <mxGeometry x="266.33000000000004" y="760" width="64" height="64" as="geometry" />
        </mxCell>
        <mxCell id="4ooUrbchnGJpolXsYl_T-17" value="" style="endArrow=classic;html=1;strokeColor=#0000FF;exitX=0.5;exitY=1;exitDx=0;exitDy=0;" parent="WIyWlLk6GJQsqaUBKTNV-1" source="4ooUrbchnGJpolXsYl_T-11" target="4ooUrbchnGJpolXsYl_T-16" edge="1">
          <mxGeometry width="50" height="50" relative="1" as="geometry">
            <mxPoint x="590" y="650" as="sourcePoint" />
            <mxPoint x="640" y="600" as="targetPoint" />
          </mxGeometry>
        </mxCell>
        <mxCell id="4ooUrbchnGJpolXsYl_T-18" value="Update payment information in customer &lt;br&gt;cosmosDB container with&amp;nbsp;&lt;br&gt;&lt;span style=&quot;background-color: rgb(255 , 255 , 254) ; font-family: &amp;#34;consolas&amp;#34; , &amp;#34;courier new&amp;#34; , monospace&quot;&gt;&lt;font color=&quot;#a31515&quot;&gt;newUser=false&lt;/font&gt;&lt;br&gt;&lt;font color=&quot;#000033&quot;&gt;and&amp;nbsp;&lt;/font&gt;&lt;font color=&quot;#ff331c&quot;&gt;status = active&lt;/font&gt;&lt;br&gt;&lt;font color=&quot;#000033&quot;&gt;and &lt;/font&gt;&lt;font color=&quot;#ff3333&quot;&gt;payment_&lt;/font&gt;&lt;/span&gt;&lt;span style=&quot;color: rgb(255 , 51 , 28) ; font-family: &amp;#34;consolas&amp;#34; , &amp;#34;courier new&amp;#34; , monospace ; background-color: rgb(255 , 255 , 254)&quot;&gt;status = in_trial&lt;/span&gt;&lt;span style=&quot;background-color: rgb(255 , 255 , 254) ; font-family: &amp;#34;consolas&amp;#34; , &amp;#34;courier new&amp;#34; , monospace&quot;&gt;&lt;br&gt;&lt;/span&gt;" style="text;html=1;align=center;verticalAlign=middle;resizable=0;points=[];autosize=1;" parent="WIyWlLk6GJQsqaUBKTNV-1" vertex="1">
          <mxGeometry x="334" y="770" width="230" height="80" as="geometry" />
        </mxCell>
        <mxCell id="4ooUrbchnGJpolXsYl_T-19" value="" style="html=1;verticalLabelPosition=bottom;align=center;labelBackgroundColor=#ffffff;verticalAlign=top;strokeWidth=2;strokeColor=#0080F0;shadow=0;dashed=0;shape=mxgraph.ios7.icons.mail;" parent="WIyWlLk6GJQsqaUBKTNV-1" vertex="1">
          <mxGeometry x="560" y="610.27" width="80" height="60" as="geometry" />
        </mxCell>
        <mxCell id="4ooUrbchnGJpolXsYl_T-20" value="" style="endArrow=classic;html=1;strokeColor=#0000FF;exitX=1;exitY=0.5;exitDx=0;exitDy=0;entryX=0;entryY=0.5;entryDx=0;entryDy=0;entryPerimeter=0;" parent="WIyWlLk6GJQsqaUBKTNV-1" source="4ooUrbchnGJpolXsYl_T-11" target="4ooUrbchnGJpolXsYl_T-19" edge="1">
          <mxGeometry width="50" height="50" relative="1" as="geometry">
            <mxPoint x="590" y="620" as="sourcePoint" />
            <mxPoint x="640" y="570" as="targetPoint" />
          </mxGeometry>
        </mxCell>
        <mxCell id="4ooUrbchnGJpolXsYl_T-21" value="In chargebee create customer &lt;br&gt;event&amp;nbsp;occurs&lt;br&gt;and send mail" style="text;html=1;align=center;verticalAlign=middle;resizable=0;points=[];autosize=1;" parent="WIyWlLk6GJQsqaUBKTNV-1" vertex="1">
          <mxGeometry x="360" y="585" width="170" height="50" as="geometry" />
        </mxCell>
        <mxCell id="BvYZoil1bm3TsS38BF1G-0" value="start" style="rounded=0;whiteSpace=wrap;html=1;" parent="WIyWlLk6GJQsqaUBKTNV-1" vertex="1">
          <mxGeometry x="254" y="70" width="120" height="30" as="geometry" />
        </mxCell>
        <mxCell id="BvYZoil1bm3TsS38BF1G-1" value="" style="endArrow=classic;html=1;exitX=0.5;exitY=1;exitDx=0;exitDy=0;entryX=0.5;entryY=0;entryDx=0;entryDy=0;" parent="WIyWlLk6GJQsqaUBKTNV-1" source="BvYZoil1bm3TsS38BF1G-0" edge="1">
          <mxGeometry width="50" height="50" relative="1" as="geometry">
            <mxPoint x="532.25" y="330" as="sourcePoint" />
            <mxPoint x="314" y="130" as="targetPoint" />
          </mxGeometry>
        </mxCell>
      </root>
    </mxGraphModel>
  </diagram>
</mxfile>
